<?xml version="1.0" standalone="no"?><!DOCTYPE svg PUBLIC "-//W3C//DTD SVG 1.1//EN" "http://www.w3.org/Graphics/SVG/1.1/DTD/svg11.dtd"><svg t="1586226841352" class="icon" viewBox="0 0 1024 1024" version="1.1" xmlns="http://www.w3.org/2000/svg" p-id="11685" xmlns:xlink="http://www.w3.org/1999/xlink" width="200" height="200"><defs><style type="text/css"></style></defs><path d="M168.594813 149.219533c-60.70764 0-104.46319 43.60717-104.46319 104.464213l0 507.384889c0 60.857043 43.754526 104.464213 104.46319 104.464213l686.46859 0c60.70764 0 104.461143-43.60717 104.461143-104.464213L959.524546 253.683746c0-60.857043-43.753503-104.464213-104.461143-104.464213L168.594813 149.219533zM855.064426 820.763203 168.594813 820.763203c-37.733393 0-59.693544-21.874193-59.693544-59.694567L108.901269 253.683746c0-37.827537 21.967314-59.694567 59.693544-59.694567l686.46859 0c37.724183 0 59.691497 21.8701 59.691497 59.694567l0 507.384889C914.755923 761.068635 900.746862 820.763203 855.064426 820.763203zM607.180779 417.836387l152.528905 0c11.437493 0 20.738323-10.038634 20.738323-22.385846 0-12.341073-9.301853-22.381753-20.738323-22.381753L607.180779 373.068787c-11.434423 0-20.736277 10.04068-20.736277 22.381753C586.445526 407.797753 595.746356 417.836387 607.180779 417.836387L607.180779 417.836387zM607.180779 537.224498l152.528905 0c11.437493 0 20.738323-10.04375 20.738323-22.3838 0-12.350283-9.301853-22.385846-20.738323-22.385846L607.180779 492.454852c-11.434423 0-20.736277 10.035564-20.736277 22.385846C586.445526 527.181771 595.746356 537.224498 607.180779 537.224498L607.180779 537.224498zM834.231959 611.836823 607.2739 611.836823c-11.484565 0-20.828374 10.04375-20.828374 22.388916 0 12.343119 9.343809 22.378683 20.828374 22.378683l226.958058 0c11.489682 0 20.832468-10.035564 20.832468-22.378683C855.064426 621.87955 845.720617 611.836823 834.231959 611.836823L834.231959 611.836823zM491.091808 582.246901c-24.426319-25.951045-55.644321-44.86072-90.273003-54.67832l-2.921539-0.823761 2.676969-1.422396c37.431517-19.828604 60.687174-57.796334 60.687174-99.097996 0-62.225203-51.192939-112.851231-114.116037-112.851231-62.944588 0-114.15083 50.625004-114.15083 112.851231 0 41.289382 23.2444 79.254042 60.670801 99.082646l2.676969 1.422396-2.917446 0.830925c-34.535561 9.7869-65.696258 28.616758-90.115414 54.460356-24.924669 26.375717-41.72531 59.001789-48.579415 94.345762-1.057075 5.392824 0.078795 10.862395 3.193739 15.406898 3.119037 4.547573 7.870248 7.627724 13.32754 8.670473 1.376347 0.280386 2.764973 0.425695 4.139274 0.425695 9.809413 0 18.297738-7.049556 20.193925-16.767895 13.879102-71.604828 78.184687-117.03553 152.089907-117.03553 74.142627 0 137.304156 45.660946 150.997016 117.566626 1.842974 9.699919 10.431583 16.741289 20.411889 16.741289 1.3743 0 2.650363-0.110517 3.88447-0.342808 11.269671-2.116197 18.708084-12.890588 16.575514-24.028253C532.784372 641.496329 516.028757 608.734158 491.091808 582.246901L491.091808 582.246901zM347.68977 358.143866c41.135886 0 74.600045 33.474392 74.600045 74.619488 0 41.138956-33.464159 74.613348-74.600045 74.613348-41.152259 0-74.632791-33.474392-74.632791-74.613348C273.058003 391.617236 306.537512 358.143866 347.68977 358.143866L347.68977 358.143866zM347.68977 358.143866" p-id="11686"></path></svg>