<?xml version="1.0" standalone="no"?><!DOCTYPE svg PUBLIC "-//W3C//DTD SVG 1.1//EN" "http://www.w3.org/Graphics/SVG/1.1/DTD/svg11.dtd"><svg t="1586225910918" class="icon" viewBox="0 0 1024 1024" version="1.1" xmlns="http://www.w3.org/2000/svg" p-id="6557" xmlns:xlink="http://www.w3.org/1999/xlink" width="200" height="200"><defs><style type="text/css"></style></defs><path d="M932.571429 54.857143H91.428571c-20.228571 0-36.571429 16.342857-36.571428 36.571428v841.142858c0 20.228571 16.342857 36.571429 36.571428 36.571428h841.142858c20.228571 0 36.571429-16.342857 36.571428-36.571428V91.428571c0-20.228571-16.342857-36.571429-36.571428-36.571428zM420.914286 604.342857l81.142857 92.228572c10.514286 37.714286-3.771429 72.114286-3.771429 72.114285l-109.371428-127.885714v-0.114286c-10.171429 33.142857-22.971429 65.485714-38.057143 96.8-25.828571 52.228571-63.085714 62.514286-102.285714 65.942857-39.314286 3.428571-26.628571-6.057143-26.628572-6.057142 77.714286-63.428571 89.142857-100.342857 110.628572-140.685715 13.6-25.485714 23.314286-73.485714 28.914285-110.628571H228.685714s5.485714-35.657143 21.942857-47.657143h116.114286c0.685714-17.485714-1.485714-117.485714-2.285714-150.171429h-56.457143c-10.514286 51.428571-46.857143 64.8-54.971429 68.685715-8 3.885714-26.971429 8.114286-24.114285 0 2.971429-8.114286 30.857143-52.8 49.371428-126.514286 18.628571-73.828571 73.028571-70.857143 73.028572-70.857143-14.628571 25.714286-25.6 84.114286-25.6 84.114286h182.514285c11.542857 0 12.114286 44.571429 12.114286 44.571428h-103.771428c-0.8 25.942857-3.2 95.771429-5.714286 150.171429H520s13.942857 17.6 13.942857 47.657143h-125.714286l-0.114285 1.714286c-1.714286 23.314286-7.2 50.171429-14.742857 77.257142l27.542857-20.685714z m383.428571 132.571429h-100.114286l-79.428571 53.257143-18.742857-53.257143h-45.828572V294.285714h244.114286v442.628572zM393.371429 625.142857s0-0.114286 0 0z m246.857142 107.771429l64.914286-43.542857h52.114286-0.114286V343.657143H608.8v345.714286h16.114286z" p-id="6558" fill="#1296db"></path></svg>